<svg xmlns="http://www.w3.org/2000/svg" viewBox="0 0 800 450" width="800" height="450">
  <defs>
    <linearGradient id="g08" x1="0%" y1="0%" x2="100%" y2="100%">
      <stop offset="0%" stop-color="#122f56"/>
      <stop offset="100%" stop-color="#1a4681"/>
    </linearGradient>
  </defs>
  <rect width="800" height="450" fill="url(#g08)"/>
  
  <circle cx="650" cy="100" r="110" fill="#ffffff" opacity="0.06"/>
  <g transform="translate(300,140)">
    <rect x="0" y="40" width="70" height="90" rx="8" fill="#1f9d55"/>
    <rect x="80" y="40" width="70" height="90" rx="8" fill="#ffab24"/>
    <rect x="160" y="40" width="70" height="90" rx="8" fill="#83b2e3"/>
    <rect x="-6" y="20" width="82" height="16" rx="4" fill="#1f9d55" opacity="0.7"/>
    <rect x="74" y="20" width="82" height="16" rx="4" fill="#ffab24" opacity="0.7"/>
    <rect x="154" y="20" width="82" height="16" rx="4" fill="#83b2e3" opacity="0.7"/>
  </g>
  <g stroke="#f7f8fa" stroke-width="6" fill="none" opacity="0.85" transform="translate(400,90)">
    <path d="M-30,0 A30,30 0 1 1 20,26" marker-end="url(#arrow)"/>
    <path d="M30,10 A30,30 0 1 1 -20,-16"/>
  </g>

</svg>