<svg xmlns="http://www.w3.org/2000/svg" viewBox="0 0 800 450" width="800" height="450">
  <defs>
    <linearGradient id="g04" x1="0%" y1="0%" x2="100%" y2="100%">
      <stop offset="0%" stop-color="#122f56"/>
      <stop offset="100%" stop-color="#1a4681"/>
    </linearGradient>
  </defs>
  <rect width="800" height="450" fill="url(#g04)"/>
  
  <circle cx="700" cy="90" r="100" fill="#ffd98a" opacity="0.18"/>
  <g transform="translate(180,180)">
    <rect x="0" y="120" width="440" height="16" rx="4" fill="#0c0f18" opacity="0.35"/>
    <rect x="30" y="40" width="14" height="90" fill="#f7f8fa" opacity="0.85"/>
    <rect x="396" y="40" width="14" height="90" fill="#f7f8fa" opacity="0.85"/>
    <path d="M20,40 L420,40 L440,10 L0,10 Z" fill="#f78e08"/>
  </g>
  <g transform="translate(330,230)" fill="#ffffff">
    <circle cx="0" cy="40" r="18"/>
    <rect x="16" y="-10" width="6" height="60"/>
    <circle cx="60" cy="30" r="14"/>
    <rect x="72" y="-25" width="5" height="60"/>
  </g>
  <g fill="#ffab24" opacity="0.8">
    <circle cx="140" cy="90" r="6"/>
    <circle cx="600" cy="130" r="6"/>
    <circle cx="500" cy="70" r="5"/>
    <circle cx="220" cy="60" r="5"/>
  </g>

</svg>