<svg xmlns="http://www.w3.org/2000/svg" viewBox="0 0 800 450" width="800" height="450">
  <defs>
    <linearGradient id="g02" x1="0%" y1="0%" x2="100%" y2="100%">
      <stop offset="0%" stop-color="#1e56a0"/>
      <stop offset="100%" stop-color="#4f8fd4"/>
    </linearGradient>
  </defs>
  <rect width="800" height="450" fill="url(#g02)"/>
  
  <circle cx="640" cy="110" r="130" fill="#ffffff" opacity="0.08"/>
  <g transform="translate(320,150) rotate(-25)">
    <rect x="0" y="40" width="180" height="34" rx="6" fill="#f7f8fa"/>
    <rect x="150" y="46" width="50" height="22" rx="4" fill="#83b2e3"/>
    <rect x="196" y="52" width="60" height="10" fill="#f7f8fa"/>
    <rect x="30" y="20" width="10" height="20" fill="#f7f8fa"/>
    <rect x="60" y="20" width="10" height="20" fill="#f7f8fa"/>
  </g>
  <g transform="translate(150,300)" fill="#ffffff" opacity="0.9">
    <rect x="0" y="18" width="46" height="12" rx="2"/>
    <rect x="17" y="1" width="12" height="46" rx="2"/>
  </g>
  <g transform="translate(600,320)" fill="#ffffff" opacity="0.6">
    <rect x="0" y="14" width="34" height="9" rx="2"/>
    <rect x="12.5" y="1" width="9" height="34" rx="2"/>
  </g>

</svg>