<svg xmlns="http://www.w3.org/2000/svg" viewBox="0 0 800 450" width="800" height="450">
  <defs>
    <linearGradient id="g03" x1="0%" y1="0%" x2="100%" y2="100%">
      <stop offset="0%" stop-color="#163a6a"/>
      <stop offset="100%" stop-color="#1e56a0"/>
    </linearGradient>
  </defs>
  <rect width="800" height="450" fill="url(#g03)"/>
  
  <circle cx="120" cy="380" r="140" fill="#ffffff" opacity="0.07"/>
  <g transform="translate(300,140)">
    <polygon points="150,0 300,55 150,110 0,55" fill="#ffd98a"/>
    <polygon points="150,55 300,55 150,110 0,55" fill="#ffab24"/>
    <rect x="140" y="55" width="10" height="90" fill="#f7f8fa" opacity="0.8"/>
    <circle cx="145" cy="150" r="7" fill="#f7f8fa" opacity="0.8"/>
  </g>
  <g transform="translate(250,280)" fill="#f7f8fa" opacity="0.95">
    <rect x="0" y="0" width="90" height="70" rx="4"/>
    <rect x="10" y="12" width="70" height="6" fill="#1a4681" opacity="0.4"/>
    <rect x="10" y="26" width="70" height="6" fill="#1a4681" opacity="0.4"/>
    <rect x="10" y="40" width="45" height="6" fill="#1a4681" opacity="0.4"/>
  </g>
  <g transform="translate(360,290)" fill="#ffffff" opacity="0.85">
    <rect x="0" y="0" width="80" height="62" rx="4"/>
    <rect x="8" y="10" width="64" height="6" fill="#f78e08" opacity="0.5"/>
    <rect x="8" y="24" width="64" height="6" fill="#f78e08" opacity="0.5"/>
  </g>

</svg>