<svg xmlns="http://www.w3.org/2000/svg" viewBox="0 0 1600 900" width="1600" height="900">
  <defs>
    <linearGradient id="sky" x1="0%" y1="0%" x2="0%" y2="100%">
      <stop offset="0%" stop-color="#0b1d38"/>
      <stop offset="45%" stop-color="#1a4681"/>
      <stop offset="100%" stop-color="#2c6fc0"/>
    </linearGradient>
    <linearGradient id="hillFar" x1="0%" y1="0%" x2="0%" y2="100%">
      <stop offset="0%" stop-color="#163a6a"/>
      <stop offset="100%" stop-color="#122f56"/>
    </linearGradient>
    <linearGradient id="hillNear" x1="0%" y1="0%" x2="0%" y2="100%">
      <stop offset="0%" stop-color="#0b1d38"/>
      <stop offset="100%" stop-color="#0b1d38"/>
    </linearGradient>
    <radialGradient id="sun" cx="50%" cy="50%" r="50%">
      <stop offset="0%" stop-color="#ffd98a" stop-opacity="0.9"/>
      <stop offset="100%" stop-color="#ffd98a" stop-opacity="0"/>
    </radialGradient>
  </defs>
  <rect width="1600" height="900" fill="url(#sky)"/>
  <circle cx="1220" cy="260" r="220" fill="url(#sun)"/>
  <circle cx="1220" cy="260" r="70" fill="#ffedc7" opacity="0.85"/>

  <path d="M0,520 C220,460 380,560 620,500 C860,440 1040,560 1280,500 C1420,470 1520,520 1600,500 L1600,900 L0,900 Z" fill="url(#hillFar)" opacity="0.9"/>
  <path d="M0,620 C260,560 460,660 720,600 C980,540 1180,660 1440,600 C1520,585 1560,600 1600,610 L1600,900 L0,900 Z" fill="url(#hillNear)"/>

  <g opacity="0.9">
    <rect x="180" y="560" width="90" height="70" rx="4" fill="#e6e6e6" opacity="0.12"/>
    <polygon points="175,560 225,520 275,560" fill="#e6e6e6" opacity="0.16"/>
  </g>

  <g stroke="#e6e6e6" stroke-opacity="0.2" stroke-width="3" fill="none">
    <path d="M400,900 C420,760 460,700 520,660"/>
    <path d="M700,900 C730,780 700,700 760,650"/>
    <path d="M1000,900 C1030,800 1010,720 1080,670"/>
  </g>
</svg>