<svg xmlns="http://www.w3.org/2000/svg" viewBox="0 0 1200 675" width="1200" height="675">
  <defs>
    <linearGradient id="sky2" x1="0%" y1="0%" x2="0%" y2="100%">
      <stop offset="0%" stop-color="#83b2e3"/>
      <stop offset="100%" stop-color="#eef4fc"/>
    </linearGradient>
    <linearGradient id="fieldFar" x1="0%" y1="0%" x2="0%" y2="100%">
      <stop offset="0%" stop-color="#4f8fd4"/>
      <stop offset="100%" stop-color="#2c6fc0"/>
    </linearGradient>
    <linearGradient id="fieldMid" x1="0%" y1="0%" x2="0%" y2="100%">
      <stop offset="0%" stop-color="#ffab24"/>
      <stop offset="100%" stop-color="#f78e08"/>
    </linearGradient>
    <linearGradient id="fieldNear" x1="0%" y1="0%" x2="0%" y2="100%">
      <stop offset="0%" stop-color="#1e56a0"/>
      <stop offset="100%" stop-color="#1a4681"/>
    </linearGradient>
  </defs>
  <rect width="1200" height="675" fill="url(#sky2)"/>
  <circle cx="980" cy="140" r="70" fill="#fff8ec" opacity="0.9"/>

  <path d="M0,340 C180,300 320,370 520,330 C740,290 900,360 1200,320 L1200,675 L0,675 Z" fill="url(#fieldFar)" opacity="0.85"/>
  <path d="M0,440 C220,400 420,460 640,420 C860,380 1020,440 1200,410 L1200,675 L0,675 Z" fill="url(#fieldMid)" opacity="0.55"/>
  <path d="M0,540 C260,500 460,560 700,520 C900,490 1060,540 1200,520 L1200,675 L0,675 Z" fill="url(#fieldNear)"/>

  <g opacity="0.9">
    <rect x="520" y="470" width="60" height="46" rx="3" fill="#f7f8fa"/>
    <polygon points="515,470 550,442 585,470" fill="#1a4681"/>
    <rect x="535" y="486" width="14" height="24" fill="#1a4681"/>
  </g>
  <g opacity="0.85">
    <rect x="640" y="490" width="40" height="32" rx="3" fill="#f7f8fa"/>
    <polygon points="636,490 660,470 684,490" fill="#163a6a"/>
  </g>

  <g stroke="#f7f8fa" stroke-opacity="0.5" stroke-width="4" fill="none">
    <path d="M0,610 C260,580 460,630 700,600 C900,575 1050,600 1200,590"/>
  </g>
</svg>